Barricade.2012.BDRip.XVID.AC3.HQ.Hive-CM8 Thx Hive

Source: Bluray
Video: 720x384 @bitrate 1700 2pass
Audio: English DTS to AC3 5.1 @448
Subs: Yes, English in srt /subs
Sample: Yes, included 
http://www.imdb.com/title/tt1861279/

General
Complete name: Barricade.2012.BDRip.XVID.AC3.HQ.Hive-CM8.avi
Format: AVI
Format/Info: Audio Video Interleave
File size: 1.58 GiB
Duration: 1h 21mn
Overall bit rate: 2 773 Kbps
Writing application: Nandub v1.0rc2
Writing library: Nandub build 1853/release

Video
ID: 0
Format: MPEG-4 Visual
Format profile: Advanced Simple@L5
Format settings, BVOP: 1
Format settings, QPel: Yes
Format settings, GMC: No warppoints
Format settings, Matrix: Default (H.263)
Muxing mode: Packed bitstream
Codec ID: XVID
Codec ID/Hint: XviD
Duration: 1h 21mn
Bit rate: 2 316 Kbps
Width: 720 pixels
Height: 384 pixels
Display aspect ratio: 1.85:1
Frame rate: 23.976 fps
Color space: YUV
Chroma subsampling: 4:2:0
Bit depth: 8 bits
Scan type: Progressive
Compression mode: Lossy
Bits/(Pixel*Frame): 0.349
Stream size: 1.32 GiB (84%)
Writing library: XviD 1.2.1 (UTC 2008-12-04)

Audio
ID: 1
Format: AC-3
Format/Info: Audio Coding 3
Mode extension: CM (complete main)
Format settings, Endianness: Big
Codec ID: 2000
Duration: 1h 21mn
Bit rate mode: Constant
Bit rate: 448 Kbps
Channel(s): 6 channels
Channel positions: Front: L C R, Side: L R, LFE
Sampling rate: 48.0 KHz
Bit depth: 16 bits
Compression mode: Lossy
Stream size: 261 MiB (16%)
Alignment: Split accross interleaves
Interleave, duration: 42 ms (1.00 video frame)
Interleave, preload duration: 500 ms

Plot:
A father's quiet retreat to the woods with his
two children turns into a fight for survival

Cast:
Eric McCormack ... Terrance Shade
Jody Thompson ... Leah Shade
Dalias Blake ... Deputy Dan 
 
http://img28.imageshack.us/img28/9982/babaa.png 
http://img836.imageshack.us/img836/3075/bababaf.png 
http://img69.imageshack.us/img69/765/babababah.png 
http://img59.imageshack.us/img59/504/24793041.png
